<svg width="591" height="327" viewBox="0 0 591 327" fill="none" xmlns="http://www.w3.org/2000/svg">
<g filter="url(#filter0_f_55_29)">
<ellipse cx="483.5" cy="303.46" rx="95.5" ry="11.46" fill="#D9D9D9"/>
</g>
<g filter="url(#filter1_f_55_29)">
<ellipse cx="201.5" cy="232.54" rx="79.4997" ry="9.53996" fill="#D9D9D9"/>
</g>
<path d="M338.16 127.187C339.729 117.562 348.804 111.031 358.43 112.6L564.114 146.134C573.74 147.703 580.27 156.778 578.701 166.403L569.301 224.058C567.732 233.684 558.657 240.215 549.032 238.645L343.347 205.112C333.722 203.542 327.191 194.467 328.76 184.842L338.16 127.187Z" fill="black"/>
<path d="M524.624 263.993C523.64 264.781 514.701 258.441 486.821 226.78L489.183 226.049L500.406 219.101C510.054 220.283 527.105 223.827 518.127 228.552C509.148 233.278 518.718 254.148 524.624 263.993Z" fill="black"/>
<path d="M489.183 226.049L500.406 219.101C510.054 220.283 527.105 223.827 518.127 228.552C509.148 233.278 518.718 254.149 524.624 263.993C523.64 264.781 514.701 258.441 486.821 226.78L489.183 226.049ZM489.183 226.049L488.002 226.78M343.347 205.112L549.032 238.645C558.657 240.215 567.732 233.684 569.301 224.058L578.701 166.403C580.27 156.778 573.74 147.703 564.114 146.134L358.43 112.6C348.804 111.031 339.729 117.562 338.16 127.187L328.76 184.842C327.191 194.467 333.722 203.542 343.347 205.112Z" stroke="black" stroke-width="1.18137"/>
<path d="M386.918 162.139C388.317 162.534 389.302 163.154 389.871 164.001C390.464 164.832 390.678 165.784 390.513 166.859C390.348 167.933 389.792 168.887 388.844 169.722C387.916 170.559 386.796 171.147 385.485 171.485C384.905 171.616 384.158 171.662 383.245 171.622C382.351 171.585 381.435 171.494 380.497 171.35C378.935 171.111 377.356 170.718 375.76 170.174C375.476 170.07 375.186 169.876 374.89 169.59C374.613 169.308 374.509 168.942 374.578 168.493C374.834 166.693 375.149 164.182 375.524 160.961L375.741 159.345C376.047 156.833 376.309 154.864 376.527 153.438C376.566 153.184 376.758 152.914 377.102 152.626C377.468 152.323 377.869 152.184 378.305 152.211C378.559 152.25 378.805 152.278 379.042 152.294C381.282 152.418 382.773 152.537 383.516 152.651C384.981 152.875 386.247 153.22 387.316 153.683C388.407 154.131 389.266 154.782 389.895 155.638C390.12 155.993 390.283 156.428 390.384 156.943C390.488 157.439 390.506 157.911 390.437 158.36C390.31 159.32 389.921 160.161 389.271 160.88C388.64 161.603 387.856 162.023 386.918 162.139ZM383.309 155.168C382.645 155.066 381.946 154.999 381.211 154.966C380.496 154.936 379.885 154.943 379.379 154.985L378.705 160.549L379.765 160.682C381.491 160.767 382.764 160.812 383.582 160.818C384.108 160.778 384.641 160.63 385.18 160.373C385.722 160.096 386.178 159.796 386.548 159.473C386.94 159.133 387.15 158.866 387.18 158.671C387.225 158.378 387.212 158.076 387.139 157.765C387.07 157.434 386.978 157.19 386.862 157.032C386.412 156.444 385.928 156.019 385.408 155.76C384.888 155.5 384.188 155.303 383.309 155.168ZM377.611 168.269C378.587 168.558 379.523 168.772 380.422 168.91C382.395 169.212 383.987 169.196 385.197 168.862C386.431 168.512 387.16 167.604 387.384 166.139C387.474 165.553 387.11 164.997 386.291 164.472C385.472 163.946 384.554 163.606 383.539 163.45C382.855 163.345 381.974 163.29 380.895 163.284C380.037 163.273 379.205 163.225 378.398 163.141C378.257 164.319 378.163 165.064 378.115 165.377C378.022 165.982 377.942 166.44 377.874 166.75L377.611 168.269ZM393.286 163.146C393.13 163.122 392.992 163.041 392.873 162.902C392.777 162.748 392.743 162.583 392.77 162.407C392.838 161.957 393.098 161.568 393.549 161.237C393.675 161.196 393.924 161.134 394.297 161.052C394.669 160.969 394.992 160.948 395.266 160.99C396.008 161.104 396.582 161.402 396.988 161.884C397.397 162.347 397.544 162.949 397.431 163.691C397.398 163.906 397.288 164.359 397.102 165.051C396.898 165.859 396.762 166.488 396.693 166.937C396.483 168.304 396.499 169.436 396.742 170.333C396.837 170.628 397.018 170.875 397.287 171.077C397.556 171.278 397.808 171.396 398.043 171.432C398.609 171.519 399.083 171.492 399.465 171.351C399.846 171.209 400.275 170.955 400.751 170.588C401.227 170.221 401.566 169.774 401.767 169.245C401.987 168.719 402.2 167.982 402.406 167.034C402.541 166.414 402.65 165.961 402.734 165.674C402.976 164.752 403.147 163.959 403.249 163.294C403.315 162.865 403.486 162.531 403.763 162.294C404.042 162.037 404.387 161.939 404.797 162.002C405.031 162.038 405.283 162.157 405.552 162.358C405.844 162.543 406.023 162.74 406.091 162.951C406.178 163.164 406.187 163.495 406.118 163.944C406.082 164.179 406.019 164.399 405.927 164.605C405.716 165.072 405.557 165.648 405.452 166.331L405.248 167.859C405.035 169.246 404.976 170.287 405.069 170.981C405.119 171.308 405.206 171.651 405.331 172.01C405.459 172.35 405.584 172.639 405.708 172.878C406.033 173.368 406.24 173.709 406.33 173.903C406.423 174.077 406.458 174.243 406.434 174.399C406.398 174.633 406.247 174.84 405.979 175.019C405.734 175.181 405.485 175.243 405.231 175.204C404.508 175.093 403.921 174.753 403.468 174.184C403.016 173.615 402.723 172.92 402.588 172.1C401.807 172.76 401.098 173.28 400.459 173.662C400.027 173.876 399.517 174.008 398.929 174.057C398.345 174.088 397.77 174.059 397.203 173.973C396.441 173.856 395.718 173.425 395.032 172.68C394.347 171.935 393.93 171.131 393.783 170.269C393.769 170.227 393.735 170.062 393.679 169.773C393.643 169.488 393.666 169.072 393.75 168.525C393.861 167.802 394.04 166.9 394.286 165.818C394.452 165.124 394.58 164.484 394.67 163.898C394.697 163.722 394.651 163.565 394.532 163.427C394.433 163.292 394.305 163.212 394.149 163.188C394.032 163.17 393.892 163.169 393.73 163.184C393.59 163.182 393.442 163.17 393.286 163.146ZM409.259 168.834C409.442 167.643 409.857 166.697 410.504 165.997C411.154 165.277 412.002 164.637 413.047 164.078C413.351 163.924 413.835 163.829 414.501 163.791C415.169 163.733 415.748 163.742 416.236 163.817C416.822 163.907 417.418 164.128 418.023 164.481C418.652 164.817 419.147 165.173 419.509 165.548C420.151 166.187 420.555 166.878 420.72 167.623C420.889 168.349 420.9 169.19 420.753 170.148C420.69 170.558 420.394 170.922 419.865 171.241C419.359 171.543 418.843 171.654 418.315 171.573L417.206 171.373C416.64 171.286 415.826 171.181 414.765 171.058L414.146 170.993C413.71 170.967 413.385 170.937 413.17 170.904C412.857 170.856 412.434 170.751 411.899 170.589C411.836 171.519 412.067 172.294 412.592 172.914C413.119 173.515 413.735 173.869 414.438 173.977C415.668 174.166 416.565 174.053 417.128 173.64C417.584 173.41 417.885 173.266 418.034 173.209C418.183 173.152 418.404 173.146 418.697 173.191C419.009 173.239 419.26 173.427 419.45 173.756C419.639 174.085 419.711 174.396 419.666 174.689C419.616 175.021 419.358 175.331 418.894 175.62C418.452 175.892 417.861 176.161 417.121 176.428C416.726 176.527 416.197 176.586 415.534 176.604C414.872 176.623 414.326 176.599 413.896 176.533C413.212 176.428 412.48 176.116 411.7 175.596C410.923 175.057 410.367 174.512 410.032 173.961C409.697 173.41 409.442 172.661 409.267 171.715C409.112 170.771 409.109 169.811 409.259 168.834ZM415.211 168.938C416.598 169.15 417.621 169.257 418.28 169.258C418.328 168.686 418.223 168.2 417.964 167.801C417.709 167.381 417.327 167.003 416.819 166.665C416.655 166.56 416.508 166.478 416.377 166.418C416.246 166.357 416.093 166.314 415.917 166.287C415.019 166.149 414.219 166.277 413.519 166.669C412.839 167.064 412.382 167.634 412.148 168.378C413.115 168.586 414.136 168.773 415.211 168.938ZM436.135 177.515C436.226 177.569 436.375 177.642 436.581 177.733C436.787 177.825 436.934 177.907 437.023 177.981C437.112 178.055 437.147 178.15 437.129 178.267C437.077 178.739 436.841 179.103 436.422 179.358C436.025 179.597 435.583 179.679 435.095 179.604C434.333 179.488 433.768 179.191 433.402 178.715C433.035 178.239 432.818 177.566 432.752 176.696C432.724 176.352 432.756 175.887 432.846 175.301C432.897 174.969 432.999 174.435 433.151 173.699C433.31 172.923 433.426 172.301 433.498 171.832C433.603 171.149 433.499 170.523 433.186 169.955C432.896 169.371 432.409 169.026 431.725 168.922C431.315 168.859 430.866 168.92 430.377 169.105C429.892 169.27 429.535 169.515 429.305 169.84C428.925 170.361 428.626 170.945 428.407 171.591C428.012 172.73 427.717 173.935 427.523 175.204C427.43 175.81 427.368 176.28 427.336 176.615C427.324 176.693 427.3 176.85 427.264 177.084C427.251 177.302 427.2 177.504 427.111 177.69C427.045 177.86 426.942 178.014 426.801 178.152C426.688 178.235 426.52 178.289 426.296 178.315C426.089 178.363 425.897 178.374 425.721 178.347C425.448 178.305 425.124 178.135 424.75 177.838C424.375 177.54 424.181 177.241 424.168 176.939L424.215 176.436C424.242 176.26 424.293 176.058 424.368 175.83C424.812 174.499 425.112 173.325 425.268 172.309C425.337 171.86 425.381 171.507 425.4 171.25L425.582 169.869C425.654 169.4 425.606 168.933 425.437 168.467C425.272 167.982 425.033 167.715 424.72 167.667C424.623 167.652 424.48 167.67 424.292 167.722C424.107 167.753 423.956 167.76 423.839 167.742C423.644 167.712 423.444 167.581 423.239 167.35C423.055 167.122 422.979 166.9 423.012 166.685C423.074 166.275 423.262 165.964 423.575 165.752C423.903 165.563 424.215 165.421 424.51 165.326C424.824 165.234 425.166 165.217 425.537 165.274C425.85 165.321 426.099 165.39 426.285 165.478C426.472 165.567 426.716 165.734 427.018 165.98C427.179 166.105 427.351 166.351 427.535 166.719C427.718 167.087 427.841 167.586 427.905 168.216C428.556 167.356 429.282 166.798 430.081 166.54C430.903 166.266 431.9 166.219 433.072 166.399C433.521 166.468 433.977 166.688 434.44 167.059C434.922 167.433 435.319 167.843 435.63 168.291C435.916 168.775 436.127 169.357 436.262 170.037C436.401 170.698 436.431 171.283 436.353 171.791C436.308 172.084 436.215 172.559 436.074 173.217C435.935 173.736 435.82 174.288 435.73 174.874C435.52 176.241 435.655 177.121 436.135 177.515ZM451.981 172.628C452.096 172.926 452.161 173.346 452.178 173.888C452.198 174.411 452.176 174.877 452.113 175.287C452.029 175.834 451.837 176.505 451.535 177.298C451.236 178.072 451.007 178.587 450.848 178.842C449.458 180.868 447.259 181.65 444.251 181.189C443.294 181.042 442.404 180.586 441.582 179.82C440.763 179.034 440.224 178.182 439.965 177.263L439.85 176.645C439.842 176.564 439.78 176.255 439.662 175.717C439.567 175.162 439.541 174.749 439.583 174.475C439.706 173.674 440.043 172.776 440.596 171.782C441.148 170.787 441.726 170.016 442.33 169.469C442.731 169.07 443.424 168.787 444.41 168.618C445.398 168.43 446.254 168.391 446.976 168.502C448.324 168.709 449.369 169.129 450.112 169.763C450.874 170.399 451.497 171.354 451.981 172.628ZM448.562 176.932C448.661 176.807 448.767 176.574 448.88 176.231C448.992 175.888 449.084 175.483 449.156 175.014C449.243 174.447 449.221 173.874 449.09 173.294C448.979 172.718 448.758 172.204 448.427 171.753C448.413 171.711 448.354 171.642 448.249 171.546C448.147 171.43 447.974 171.314 447.733 171.197C447.494 171.06 447.179 170.962 446.788 170.902C446.026 170.785 445.347 170.911 444.751 171.279C444.155 171.648 443.669 172.143 443.294 172.765C442.938 173.39 442.711 174.025 442.612 174.67C442.585 174.846 442.588 175.216 442.621 175.781C442.654 176.346 442.688 176.711 442.723 176.876C442.837 177.173 443.091 177.542 443.483 177.982C443.878 178.403 444.359 178.656 444.926 178.743C445.805 178.878 446.52 178.778 447.071 178.443C447.642 178.11 448.139 177.607 448.562 176.932ZM463.048 177.474C463.189 177.596 463.463 177.828 463.871 178.17C464.3 178.496 464.567 178.847 464.669 179.223C464.771 179.598 464.774 180.098 464.679 180.723C464.571 181.427 464.27 182.02 463.776 182.504C463.285 182.969 462.694 183.298 462.005 183.492C461.526 183.618 461.019 183.661 460.486 183.619C459.972 183.58 459.354 183.505 458.631 183.394C458.24 183.335 457.742 183.198 457.134 182.985C456.547 182.775 456.143 182.603 455.924 182.469C455.353 182.022 454.888 181.531 454.531 180.996C454.173 180.462 454.031 179.95 454.106 179.462C454.166 179.071 454.341 178.778 454.631 178.583C454.921 178.387 455.271 178.321 455.681 178.384C455.896 178.417 456.092 178.507 456.269 178.654C456.469 178.785 456.598 178.924 456.655 179.073C456.792 179.614 457.095 180.05 457.564 180.382C458.033 180.714 458.531 180.92 459.058 181.001C460.914 181.286 461.893 181.096 461.994 180.432C462.021 180.256 461.993 180.112 461.911 179.999C461.851 179.87 461.751 179.735 461.613 179.593C461.386 179.379 461.053 179.138 460.614 178.871C460.195 178.606 459.817 178.398 459.481 178.247C458.707 177.948 457.966 177.565 457.258 177.096C456.609 176.637 456.103 176.089 455.741 175.454C455.381 174.799 455.266 174.052 455.395 173.212C455.473 172.704 455.735 172.234 456.181 171.803C456.649 171.355 457.157 171.043 457.704 170.867C458.076 170.784 458.675 170.726 459.5 170.693C460.325 170.659 460.883 170.665 461.176 170.71C461.626 170.779 462.106 170.903 462.619 171.081C463.134 171.24 463.514 171.438 463.757 171.676C464.237 172.069 464.615 172.467 464.894 172.869C465.175 173.252 465.282 173.659 465.216 174.089C465.183 174.303 465.099 174.53 464.962 174.769C464.828 174.989 464.689 175.117 464.543 175.155C464.229 175.247 463.877 175.263 463.486 175.203C463.31 175.176 463.171 175.104 463.069 174.989C462.986 174.876 462.874 174.699 462.731 174.457C462.567 174.092 462.392 173.865 462.205 173.777C461.98 173.682 461.649 173.561 461.211 173.414C460.777 173.248 460.482 173.152 460.326 173.128C459.837 173.054 459.354 173.079 458.874 173.206C458.415 173.335 458.159 173.566 458.108 173.898C458.049 174.289 458.32 174.67 458.923 175.042C459.303 175.301 459.727 175.536 460.194 175.747C460.681 175.962 460.98 176.098 461.091 176.155C461.355 176.255 461.686 176.446 462.083 176.727C462.499 177.01 462.821 177.26 463.048 177.474ZM481.097 167.708C483.753 168.115 485.796 168.808 487.225 169.787C488.677 170.75 489.735 171.742 490.398 172.763C490.928 173.604 491.324 174.544 491.584 175.584C491.848 176.604 491.876 177.788 491.669 179.136C491.517 180.132 491.132 181.142 490.515 182.167C489.901 183.173 489.181 183.952 488.357 184.505C487.484 185.111 486.672 185.586 485.919 185.931C485.186 186.278 484.221 186.51 483.023 186.626C481.849 186.726 480.382 186.641 478.624 186.371C477.296 186.167 476.117 185.837 475.088 185.379C474.061 184.902 473.604 184.302 473.715 183.579C473.76 183.286 473.921 183.081 474.199 182.963C474.499 182.829 474.806 182.787 475.118 182.834C475.294 182.861 475.41 182.889 475.465 182.918C475.8 181.65 476.078 180.293 476.3 178.847C476.548 177.226 476.714 175.882 476.798 174.815C476.885 173.729 476.941 172.648 476.966 171.572C476.967 171.433 476.977 171.044 476.994 170.407C477.032 169.773 477.1 169.134 477.199 168.489C477.261 168.079 477.519 167.769 477.971 167.558C478.426 167.328 478.869 167.246 479.298 167.312C479.552 167.351 479.891 167.423 480.315 167.528C480.66 167.621 480.921 167.681 481.097 167.708ZM478.285 183.5C478.742 183.65 479.351 183.784 480.113 183.9C481.402 184.098 482.663 184.022 483.896 183.671C485.133 183.301 486.176 182.691 487.026 181.842C487.879 180.973 488.403 179.904 488.597 178.634C488.801 177.306 488.741 176.137 488.416 175.128C488.091 174.118 487.486 173.236 486.602 172.481C485.949 171.921 485.109 171.462 484.085 171.105C483.063 170.728 481.81 170.426 480.325 170.198C480.253 170.667 480.193 171.258 480.143 171.97C480.107 172.204 480.064 172.617 480.013 173.209C479.783 175.493 479.561 177.328 479.349 178.715C479.04 180.727 478.685 182.322 478.285 183.5ZM497.28 169.95C497.955 170.113 498.522 170.39 498.982 170.781C499.445 171.152 499.63 171.64 499.537 172.245C499.468 172.695 499.198 173.023 498.726 173.231C498.277 173.422 497.759 173.472 497.173 173.382C496.607 173.295 496.239 173.089 496.069 172.763C495.899 172.437 495.838 172.118 495.886 171.805C495.976 171.219 496.109 170.74 496.286 170.367C496.483 169.998 496.814 169.859 497.28 169.95ZM497.633 183.289L497.503 184.139C497.386 184.9 497.295 185.626 497.229 186.316C497.185 186.989 497.15 187.673 497.124 188.369C497.074 188.561 496.896 188.744 496.59 188.917C496.286 189.07 496.027 189.13 495.812 189.097C495.441 189.04 495.071 188.914 494.701 188.717C494.354 188.504 494.158 188.284 494.113 188.057C494.091 187.414 494.118 186.848 494.193 186.36C494.439 184.758 494.666 182.954 494.874 180.946C495.065 179.177 495.215 177.94 495.323 177.237C495.376 176.885 495.599 176.609 495.989 176.409C496.38 176.209 496.77 176.139 497.161 176.199C497.727 176.286 498.099 176.473 498.275 176.76C498.47 177.05 498.526 177.468 498.442 178.015L497.633 183.289ZM511.513 191.505C510.849 191.404 510.356 191.228 510.034 190.979C509.715 190.71 509.394 190.261 509.071 189.632C508.494 190.003 507.677 190.247 506.62 190.365C505.581 190.486 504.701 190.491 503.978 190.38C502.787 190.197 501.869 189.726 501.226 188.968C500.605 188.193 500.392 187.171 500.587 185.901C500.671 185.354 500.894 184.879 501.255 184.474C501.64 184.053 502.103 183.705 502.646 183.428C503.249 183.141 503.939 182.947 504.714 182.846C505.509 182.748 506.219 182.747 506.844 182.842C507.898 183.004 508.821 183.246 509.611 183.567L509.616 183.538C509.778 182.483 509.625 181.72 509.157 181.248C508.713 180.76 507.924 180.429 506.791 180.255C506.068 180.144 505.394 180.371 504.767 180.935C504.533 181.159 504.103 181.223 503.478 181.127C503.166 181.079 502.951 180.916 502.834 180.638C502.739 180.344 502.712 180.06 502.754 179.786C502.841 179.22 503.15 178.767 503.682 178.429C504.233 178.094 504.866 177.881 505.579 177.79C506.296 177.68 506.947 177.67 507.533 177.76C508.1 177.847 508.756 178.068 509.501 178.422C510.246 178.776 510.833 179.186 511.262 179.652C511.77 180.249 512.128 180.914 512.335 181.646C512.565 182.361 512.619 183.119 512.496 183.919C512.457 184.173 512.379 184.551 512.262 185.053C512.133 185.633 512.041 186.109 511.984 186.48C511.957 186.655 511.903 186.877 511.822 187.145C511.729 187.49 511.664 187.78 511.628 188.015C511.589 188.268 511.63 188.525 511.75 188.783C511.871 189.041 512.055 189.27 512.305 189.468C512.538 189.644 512.681 189.815 512.736 189.984C512.79 190.152 512.802 190.334 512.772 190.529C512.742 190.724 512.578 190.949 512.279 191.203C512.002 191.441 511.747 191.541 511.513 191.505ZM506.511 185.011C505.749 184.894 505.053 184.937 504.422 185.14C503.791 185.343 503.419 185.816 503.305 186.558C503.248 186.929 503.327 187.261 503.542 187.554C503.777 187.85 504.05 188.022 504.363 188.07C505.203 188.199 505.919 188.218 506.513 188.13C507.106 188.041 507.839 187.823 508.712 187.477C508.857 187.18 508.983 186.749 509.09 186.186C509.123 185.971 509.158 185.806 509.196 185.692C508.168 185.355 507.273 185.127 506.511 185.011ZM524.168 186.459C524.88 187.028 525.358 187.561 525.602 188.059C525.848 188.536 525.918 189.127 525.81 189.83C525.702 190.533 525.401 191.127 524.907 191.611C524.416 192.075 523.826 192.404 523.136 192.599C522.634 192.742 522.023 192.818 521.302 192.827C520.6 192.839 520.054 192.816 519.663 192.756C518.98 192.651 518.257 192.41 517.495 192.033C516.733 191.656 516.105 191.19 515.61 190.635C515.135 190.082 514.946 189.493 515.042 188.868C515.102 188.477 515.275 188.194 515.562 188.018C515.852 187.823 516.202 187.756 516.612 187.819C516.944 187.87 517.26 188.159 517.559 188.684C517.867 189.151 518.249 189.53 518.704 189.82C519.179 190.112 519.661 190.296 520.149 190.371C522.005 190.656 522.997 190.378 523.126 189.538C523.153 189.362 523.119 189.187 523.026 189.013C522.936 188.819 522.847 188.686 522.758 188.612C522.603 188.448 522.377 188.294 522.079 188.148C521.782 188.003 521.481 187.876 521.178 187.77C520.877 187.644 520.652 187.549 520.501 187.486C520.351 187.423 520.03 187.304 519.537 187.128C519.063 186.956 518.62 186.718 518.207 186.415C517.518 185.949 516.979 185.427 516.588 184.847C516.217 184.27 516.092 183.581 516.215 182.78C516.284 182.331 516.46 181.898 516.744 181.482C517.051 181.049 517.417 180.746 517.844 180.571C518.486 180.29 519.174 180.106 519.908 180.018C520.641 179.931 521.31 179.933 521.916 180.026C522.404 180.101 522.943 180.234 523.534 180.424C524.144 180.618 524.572 180.824 524.819 181.041C525.285 181.393 525.612 181.733 525.802 182.062C525.991 182.391 526.051 182.78 525.983 183.229C525.95 183.444 525.868 183.651 525.737 183.851C525.61 184.031 525.471 184.15 525.323 184.207C524.992 184.277 524.71 184.293 524.475 184.257C524.3 184.23 524.158 184.179 524.049 184.102C523.944 184.006 523.849 183.911 523.763 183.818C523.697 183.728 523.656 183.672 523.639 183.649C523.427 183.337 523.177 183.079 522.888 182.874C522.6 182.67 522.153 182.522 521.547 182.429C521.156 182.369 520.767 182.369 520.377 182.429C520.011 182.473 519.718 182.558 519.499 182.684C519.324 182.778 519.201 182.868 519.127 182.957C519.056 183.026 519.011 183.129 518.99 183.266C518.906 183.813 519.391 184.297 520.446 184.719C521.521 185.144 522.086 185.37 522.141 185.399C522.252 185.456 522.56 185.603 523.063 185.84C523.586 186.08 523.954 186.287 524.168 186.459Z" fill="white"/>
<path d="M1.15592 63.6021C-0.128786 53.9346 6.6668 45.0561 16.3343 43.7714L337.019 1.15592C346.686 -0.128786 355.565 6.6668 356.85 16.3343L364.545 74.2416C365.83 83.909 359.034 92.7876 349.366 94.0723L28.6818 136.688C19.0144 137.972 10.1359 131.177 8.85116 121.509L1.15592 63.6021Z" fill="black"/>
<path d="M60.2611 164.221C61.2456 165.008 70.1846 158.668 98.065 127.008L95.7023 126.276L84.4792 119.329C74.8314 120.51 57.7802 124.054 66.7586 128.78C75.7371 133.505 66.168 154.376 60.2611 164.221Z" fill="black"/>
<path d="M95.7023 126.276L84.4792 119.329C74.8314 120.51 57.7802 124.054 66.7586 128.78C75.7371 133.505 66.168 154.376 60.2611 164.221C61.2456 165.008 70.1846 158.668 98.065 127.008L95.7023 126.276ZM95.7023 126.276L96.8836 127.008M28.6818 136.688L349.366 94.0723C359.034 92.7876 365.83 83.909 364.545 74.2416L356.85 16.3343C355.565 6.6668 346.686 -0.128786 337.019 1.15592L16.3343 43.7714C6.6668 45.0561 -0.128786 53.9346 1.15592 63.6021L8.85116 121.509C10.1359 131.177 19.0144 137.972 28.6818 136.688Z" stroke="black" stroke-width="1.18137"/>
<path d="M88.2031 74.7535C88.1448 74.4421 88.0768 73.9727 87.9993 73.3451L87.8612 72.2272C87.7691 71.4819 87.6804 70.9254 87.5952 70.5576C87.5172 70.2487 87.397 69.4372 87.2347 68.1232C87.1765 67.6525 87.269 67.2727 87.5121 66.9839C87.7723 66.6729 88.1476 66.4872 88.6379 66.4266C89.2655 66.3491 89.7041 66.4343 89.9538 66.6822C90.2034 66.9301 90.367 67.3679 90.4445 67.9955L90.5826 69.1133L90.953 72.353C91.0109 72.983 91.1174 73.9256 91.2725 75.1807L91.5999 77.5894C91.6656 77.9596 91.7396 78.4781 91.8219 79.1449C91.8874 79.6744 92.0003 80.4271 92.1606 81.4028C92.3113 82.3001 92.4145 82.9743 92.4702 83.4254C92.5163 83.798 92.4508 84.1546 92.2738 84.495C92.1165 84.833 91.8613 85.0238 91.5083 85.0674C90.1354 85.2371 89.3921 84.861 89.2782 83.9392C89.2152 83.4293 89.1646 82.8581 89.1263 82.2257C89.1097 81.7698 89.0446 81.0809 88.9307 80.1592C88.8507 79.512 88.716 78.5828 88.5266 77.3717C87.6145 77.564 86.0308 77.7995 83.7754 78.0781C82.3633 78.2526 81.2651 78.3883 80.4806 78.4852C79.6937 78.5625 79.1189 78.5837 78.7562 78.5489L79.1447 81.9356C79.1713 82.1513 79.2919 82.7238 79.5062 83.6531C79.6818 84.2686 79.7987 84.8116 79.8568 85.2823C79.8932 85.5765 79.7518 85.8827 79.4327 86.2009C79.1308 86.497 78.8327 86.6633 78.5386 86.6996C77.8325 86.7868 77.3314 86.6795 77.0353 86.3776C76.7367 86.0561 76.5438 85.5423 76.4566 84.8363L76.1401 82.5159C76.0865 82.2437 76.0295 81.8625 75.9689 81.3722C75.8793 80.6466 75.7373 79.6586 75.543 78.4082C75.3633 77.2756 75.2419 76.4543 75.1789 75.9444C75.0844 75.1795 74.972 74.1083 74.8416 72.7306C74.7209 71.4313 74.6218 70.4679 74.5443 69.8403C74.4667 69.2127 74.5715 68.7717 74.8587 68.5172C75.1458 68.2627 75.4855 68.1112 75.8777 68.0628C76.976 67.9271 77.57 68.2221 77.6596 68.9477C77.8195 70.2421 77.9428 71.4813 78.0293 72.6653C78.1742 74.1606 78.2891 75.2515 78.3739 75.938C78.9596 76.005 79.5687 76.0193 80.2011 75.981C80.8335 75.9427 81.7185 75.8533 82.856 75.7128C85.1702 75.4269 86.9526 75.1071 88.2031 74.7535ZM95.3346 78.2331C95.2426 77.4878 95.2878 76.7256 95.4703 75.9464C95.6504 75.1476 95.9272 74.4066 96.3007 73.7233C96.6743 73.0399 97.3271 72.4416 98.2592 71.9282C99.189 71.3952 100.036 71.0815 100.801 70.987C101.586 70.8901 102.393 70.8998 103.224 71.0162C104.074 71.1302 104.684 71.3933 105.054 71.8056C105.905 72.7358 106.392 73.6912 106.513 74.6718C106.578 75.2013 106.516 75.6669 106.327 76.0686C106.157 76.4679 105.893 76.9087 105.535 77.3911C105.245 77.7853 104.745 78.086 104.033 78.2934C103.342 78.4982 102.643 78.6443 101.937 78.7315C101.486 78.7873 100.932 78.8159 100.275 78.8174C99.6158 78.7993 98.9737 78.7591 98.3488 78.697C98.4365 79.0844 98.5818 79.4547 98.7847 79.8079C98.9876 80.1612 99.2091 80.4225 99.449 80.592C99.8873 80.9162 100.318 81.1018 100.742 81.149C101.186 81.1938 101.741 81.175 102.408 81.0926C103.114 81.0054 103.756 80.8065 104.335 80.4961C104.804 80.259 105.195 80.1211 105.509 80.0823C105.881 80.0363 106.18 80.1188 106.406 80.3299C106.628 80.5214 106.762 80.7937 106.805 81.1467C106.866 81.637 106.631 82.0742 106.101 82.4582C105.571 82.8423 104.943 83.1588 104.217 83.4078C103.509 83.6347 102.929 83.776 102.478 83.8318C101.556 83.9456 100.643 83.8892 99.7388 83.6624C98.8346 83.4356 98.0607 83.0533 97.4168 82.5156C96.8783 82.0246 96.4245 81.4137 96.0554 80.6827C95.6839 79.9322 95.4437 79.1156 95.3346 78.2331ZM101.257 73.4693C100.826 73.5226 100.405 73.6642 99.9955 73.894C99.5834 74.1042 99.2582 74.3734 99.02 74.7015C98.713 75.1177 98.5054 75.452 98.3972 75.7043C98.3062 75.9346 98.2653 76.2482 98.2745 76.6453C98.7842 76.7416 99.8137 76.6941 101.363 76.5027C102.206 76.3985 102.838 76.1911 103.257 75.8804C103.697 75.5673 103.891 75.2048 103.84 74.793C103.789 74.3811 103.488 74.04 102.937 73.7696C102.386 73.4991 101.826 73.3991 101.257 73.4693ZM114.308 88.3138C113.563 88.4058 112.919 88.3559 112.378 88.1639C111.859 87.9891 111.45 87.741 111.151 87.4195C110.875 87.1152 110.721 86.8355 110.689 86.5806C110.648 86.2471 110.733 85.9678 110.944 85.7427C111.157 85.5371 111.431 85.4137 111.764 85.3725C111.96 85.3483 112.154 85.3841 112.345 85.48C112.536 85.5758 112.643 85.6323 112.665 85.6495C112.814 85.7306 112.961 85.7921 113.106 85.834C113.253 85.8955 113.405 85.9165 113.561 85.8972C113.993 85.8439 114.311 85.5159 114.515 84.9132C114.719 84.3105 114.88 83.3548 114.997 82.0461C113.955 80.8608 113.059 79.6572 112.311 78.4355L111.442 76.96C111.315 76.7367 110.965 76.1627 110.393 75.2378C109.838 74.2909 109.297 73.4617 108.771 72.7501C108.429 72.2349 108.246 71.8792 108.221 71.6831C108.161 71.1928 108.283 70.8094 108.587 70.5328C108.911 70.2539 109.298 70.0865 109.75 70.0308C110.063 69.9921 110.307 70.0316 110.481 70.1495C110.672 70.2454 110.896 70.4467 111.153 70.7535C111.838 71.6246 112.63 72.9603 113.53 74.7607C114.055 75.7909 114.471 76.5758 114.776 77.1155C115.079 77.6356 115.433 78.1594 115.837 78.6869C116.075 77.8809 116.336 76.5246 116.618 74.6181C116.801 73.5202 116.952 72.6454 117.07 71.9936C117.206 71.3198 117.369 70.7023 117.558 70.1413C117.691 69.7665 117.872 69.4555 118.1 69.2082C118.348 68.9586 118.639 68.8132 118.972 68.772C119.306 68.7308 119.674 68.8146 120.079 69.0236C120.5 69.2105 120.731 69.4706 120.772 69.804C120.797 70.0001 120.757 70.2439 120.654 70.5355C120.107 72.395 119.636 74.1457 119.242 75.7873C118.864 77.4069 118.526 79.181 118.227 81.1096C118.041 82.1878 117.83 83.2194 117.593 84.2044C117.376 85.1869 117.212 85.7946 117.102 86.0272C116.777 86.6248 116.392 87.1304 115.945 87.544C115.501 87.9772 114.955 88.2338 114.308 88.3138ZM125.043 80.9842C124.827 81.0109 124.666 80.9911 124.558 80.9247C124.306 80.8165 124.078 80.6654 123.875 80.4715C123.669 80.258 123.541 79.9453 123.49 79.5334C123.473 79.2368 123.51 78.9734 123.601 78.7431C123.69 78.4932 123.836 78.3059 124.04 78.1812C124.425 77.9146 124.941 77.7413 125.588 77.6614C126.059 77.6032 126.463 77.7325 126.801 78.0492C127.136 78.3462 127.334 78.7399 127.395 79.2302C127.468 79.8186 127.375 80.517 127.116 81.3255C126.88 82.1511 126.621 82.8003 126.341 83.273C126.123 83.5986 125.86 83.8899 125.553 84.1469C125.266 84.4014 125.005 84.5431 124.77 84.5722C124.299 84.6304 123.985 84.5895 123.829 84.4495C123.694 84.3268 123.604 84.0791 123.558 83.7065C123.538 83.5496 123.714 83.279 124.084 82.8947C124.382 82.5593 124.562 82.328 124.626 82.2006C124.872 81.772 125.04 81.3629 125.131 80.9733L125.043 80.9842ZM149.752 77.9317C148.281 78.1134 147.22 77.667 146.57 76.5925C146.245 76.0553 145.987 75.3404 145.797 74.448C145.605 73.5359 145.432 72.4621 145.28 71.2265L145.167 70.3146C144.993 68.9025 144.435 68.2546 143.493 68.3709C142.944 68.4388 142.43 68.791 141.951 69.4276C141.47 70.0445 141.1 70.8369 140.841 71.8047C140.6 72.7505 140.539 73.7137 140.66 74.6943C140.74 75.3415 140.843 75.9262 140.967 76.4485C141.088 77.1104 141.171 77.6179 141.215 77.9709C141.297 78.6377 140.877 79.0281 139.956 79.142C139.504 79.1977 139.09 79.1493 138.713 78.9968C138.355 78.8418 138.157 78.6075 138.118 78.2937C138.073 77.2838 137.96 76.0434 137.778 74.5725L137.269 70.6929C137.192 70.0654 136.855 67.7474 136.261 63.739L135.838 61.0435C135.785 60.612 135.935 60.2152 136.288 59.8529C136.639 59.471 137.06 59.2498 137.55 59.1893C137.982 59.136 138.308 59.1952 138.528 59.3671C138.748 59.539 138.884 59.8309 138.935 60.2428C138.998 60.7527 139.062 61.352 139.127 62.0409C139.19 62.7101 139.233 63.2225 139.257 63.5779C139.322 64.5854 139.416 65.5892 139.54 66.5894C139.661 67.57 139.737 68.3471 139.768 68.9207C140.25 67.9851 140.838 67.2653 141.532 66.7614C142.244 66.2355 143.109 65.9095 144.129 65.7835C144.875 65.6914 145.602 65.94 146.312 66.5293C147.039 67.0966 147.524 67.7934 147.765 68.6197C147.858 69.0463 147.956 69.6813 148.06 70.5246L148.296 72.6758C148.337 73.0092 148.421 73.5265 148.547 74.2276C148.608 74.5586 148.76 74.8983 149.002 75.2467C149.264 75.5927 149.543 75.837 149.839 75.9796C150.113 76.105 150.3 76.2413 150.397 76.3885C150.495 76.5357 150.556 76.7073 150.58 76.9035C150.605 77.0996 150.542 77.3164 150.392 77.5539C150.24 77.7719 150.026 77.8978 149.752 77.9317ZM163.187 66.5949C163.378 66.8501 163.555 67.2364 163.719 67.7538C163.88 68.2516 163.986 68.7065 164.037 69.1183C164.102 69.6478 164.116 70.2435 164.078 70.9052C164.041 71.5669 163.995 72.0804 163.94 72.4455C162.892 75.0838 161.044 76.5665 158.397 76.8936C157.416 77.0147 156.376 76.8147 155.276 76.2935C154.176 75.7723 153.378 75.1142 152.882 74.3194C152.146 72.7178 151.75 71.6816 151.691 71.2109C151.594 70.4265 151.658 69.5724 151.883 68.6486C152.127 67.7225 152.473 66.9031 152.923 66.1905C153.22 65.6958 153.781 65.2382 154.605 64.8178C155.427 64.3778 156.191 64.1142 156.897 64.027C158.27 63.8574 159.459 63.9792 160.466 64.3924C161.49 64.7836 162.397 65.5178 163.187 66.5949ZM161.213 71.6474C161.287 71.4392 161.255 70.7761 161.117 69.6583C161.046 69.0895 160.87 68.5439 160.586 68.0214C160.322 67.4965 159.97 67.0622 159.529 66.7184C159.485 66.684 159.37 66.6385 159.184 66.5818C158.995 66.5056 158.739 66.4476 158.415 66.4079C158.109 66.3462 157.76 66.3396 157.368 66.388C156.269 66.5237 155.52 67.0643 155.119 68.0099C154.718 68.9554 154.587 69.9871 154.725 71.105C154.747 71.2815 154.85 71.6371 155.036 72.1717C155.221 72.7063 155.353 73.0484 155.431 73.198C155.622 73.4532 155.976 73.738 156.493 74.0525C157.027 74.3449 157.578 74.456 158.147 74.3858C159.029 74.2767 159.7 73.9848 160.159 73.51C160.635 73.0131 160.987 72.3922 161.213 71.6474ZM180.428 66.9439C180.493 66.4979 180.547 65.8938 180.593 65.1316C180.68 64.2248 180.754 63.5387 180.816 63.073C180.878 62.6074 180.988 62.2056 181.145 61.8676C181.317 61.4879 181.475 61.2296 181.617 61.0925C181.779 60.953 181.958 60.8712 182.154 60.8469C183.174 60.721 183.732 61.0502 183.829 61.8347C183.878 62.2269 183.812 62.9818 183.631 64.0992C182.979 67.3655 182.534 69.8895 182.297 71.6711C182.19 72.4209 181.965 73.0162 181.621 73.4569C181.275 73.878 180.769 74.1297 180.102 74.2121C179.768 74.2533 179.406 74.1388 179.014 73.8686C178.639 73.5764 178.315 73.2083 178.041 72.7643L177.619 72.0099C176.898 70.6853 176.354 69.6674 175.988 68.956C175.638 68.2226 175.387 67.5568 175.233 66.9585L175.085 67.9326C174.822 69.6774 174.526 71.3069 174.195 72.8212C174.033 73.598 173.785 74.1761 173.454 74.5555C173.12 74.9153 172.659 75.1316 172.071 75.2043C171.718 75.2479 171.394 75.2082 171.1 75.0852C170.826 74.9598 170.548 74.7254 170.267 74.3818C169.89 73.9107 169.501 73.2618 169.1 72.4352C168.719 71.6062 168.151 70.3125 167.396 68.554C167.044 67.801 166.707 67.0063 166.385 66.1701C166.06 65.3142 165.876 64.7097 165.832 64.3567C165.781 63.9449 165.849 63.6079 166.036 63.3459C166.223 63.0839 166.522 62.9275 166.934 62.8766C167.463 62.8112 167.849 62.873 168.092 63.0621C168.332 63.2316 168.565 63.5113 168.793 63.9014C168.978 64.5953 169.317 65.5689 169.81 66.8221L170.799 69.5074C170.865 69.7183 171.039 70.1548 171.32 70.817L171.66 71.6411C172.096 70.3328 172.415 69.2082 172.617 68.2673C172.817 67.3068 173.085 65.9297 173.421 64.136C173.625 63.6926 173.813 63.3608 173.985 63.1404C174.155 62.9005 174.337 62.7684 174.533 62.7442C174.926 62.6957 175.275 62.782 175.581 63.003C175.904 63.202 176.156 63.4695 176.337 63.8056L176.905 65.0197C178.332 68.1885 179.282 70.0723 179.754 70.6711L180.428 66.9439ZM207.515 69.2724C207.568 69.7038 207.378 70.0957 206.943 70.4481C206.509 70.8004 206.096 71.0008 205.703 71.0493C204.978 71.1389 204.379 71.1233 203.906 71.0025C203.45 70.8597 202.994 70.5576 202.539 70.0961C202.105 70.6078 201.461 71.0358 200.607 71.3802C199.751 71.7049 198.951 71.9134 198.205 72.0054C196.99 72.1556 195.94 71.9568 195.055 71.409C194.189 70.8391 193.676 69.9167 193.519 68.642C193.451 68.0928 193.55 67.5231 193.816 66.9328C194.079 66.3228 194.435 65.8209 194.884 65.4269C195.37 65.0085 195.939 64.6992 196.591 64.4992C197.241 64.2795 198.007 64.1152 198.89 64.0061C199.302 63.9552 199.802 63.9731 200.39 64.0598C200.978 64.1464 201.45 64.2574 201.805 64.3927L201.747 63.922C201.616 62.8629 201.261 62.17 200.683 61.8432C200.123 61.4943 199.273 61.3902 198.136 61.5307C197.783 61.5743 197.467 61.6731 197.187 61.8271C196.925 61.9591 196.619 62.1462 196.271 62.3883C195.942 62.6281 195.621 62.7673 195.307 62.8061C195.032 62.84 194.754 62.7648 194.473 62.5806C194.189 62.3768 194.031 62.1474 193.999 61.8924C193.897 61.0687 194.334 60.4075 195.307 59.9089C196.298 59.3883 197.333 59.0613 198.412 58.9281C198.961 58.8602 199.603 58.9003 200.338 59.0485C201.071 59.177 201.707 59.4071 202.245 59.7387C202.894 60.1563 203.418 60.689 203.817 61.3366C204.235 61.9819 204.494 62.7065 204.593 63.5106C204.624 63.7656 204.652 64.1504 204.676 64.6652C204.704 65.2192 204.743 65.6923 204.791 66.0845L204.86 66.8824C204.874 67.3188 204.897 67.6644 204.928 67.9193C204.958 68.1547 205.061 68.3509 205.24 68.5081C205.436 68.6431 205.652 68.6962 205.887 68.6671L206.707 68.5359C206.923 68.5092 207.1 68.5769 207.24 68.7389C207.397 68.8788 207.488 69.0566 207.515 69.2724ZM197.918 69.6814C198.762 69.5772 199.457 69.4017 200.004 69.155C200.551 68.9082 201.197 68.4998 201.943 67.9298C201.98 67.5867 201.975 67.1393 201.927 66.5878C200.785 66.2111 199.861 66.0664 199.155 66.1536C198.488 66.236 197.953 66.3321 197.548 66.4418C197.141 66.5319 196.789 66.7446 196.492 67.08C196.195 67.4154 196.086 67.9066 196.166 68.5538C196.212 68.9265 196.428 69.2185 196.812 69.4298C197.216 69.6387 197.585 69.7226 197.918 69.6814ZM213.797 68.7352C213.838 69.0686 213.747 69.3786 213.523 69.665C213.3 69.9515 213.002 70.1177 212.629 70.1637C212.041 70.2364 211.596 70.1819 211.295 70.0001C210.991 69.7986 210.802 69.3939 210.727 68.786C210.637 68.0603 210.5 67.1116 210.315 65.9397C210.155 64.9639 210.034 64.1426 209.951 63.4758C209.913 63.162 209.881 62.7478 209.858 62.233C209.839 61.7575 209.815 61.402 209.786 61.1667C209.681 60.8013 209.496 60.5155 209.232 60.3093C208.965 60.0834 208.645 59.9934 208.272 60.0395C208.096 60.0613 207.939 60.001 207.802 59.8587C207.663 59.6967 207.582 59.5274 207.56 59.3509C207.504 58.8999 207.639 58.5348 207.962 58.2559C208.306 57.9745 208.733 57.8023 209.243 57.7393C210.302 57.6085 211.115 58.1452 211.682 59.3495C212.119 58.6981 212.639 58.156 213.243 57.723C213.864 57.268 214.478 57.0029 215.086 56.9278C215.812 56.8382 216.493 56.9531 217.13 57.2727C217.786 57.5898 218.155 58.0818 218.238 58.7486C218.284 59.1212 218.164 59.5243 217.879 59.9577C217.614 60.3887 217.315 60.6248 216.981 60.666C216.805 60.6878 216.643 60.668 216.496 60.6065C216.366 60.5229 216.202 60.4038 216.004 60.2491C215.784 60.0772 215.6 59.9605 215.453 59.8991C215.304 59.818 215.141 59.7883 214.964 59.8101C214.65 59.8489 214.362 59.9343 214.1 60.0662C213.837 60.1982 213.666 60.3389 213.584 60.4883C213.331 61.0174 213.15 61.4877 213.042 61.8993C212.953 62.3085 212.937 62.7387 212.992 63.1898C213.033 63.5232 213.056 63.7891 213.061 63.9877L213.239 65.6681C213.27 65.9231 213.315 66.2063 213.374 66.5176C213.432 66.829 213.481 67.0619 213.52 67.2164C213.644 67.7386 213.736 68.2449 213.797 68.7352ZM220.275 62.7978C220.183 62.0525 220.228 61.2903 220.411 60.5111C220.591 59.7123 220.868 58.9713 221.241 58.288C221.615 57.6047 222.268 57.0063 223.2 56.4929C224.129 55.9599 224.977 55.6462 225.742 55.5517C226.526 55.4548 227.334 55.4645 228.164 55.5809C229.015 55.6949 229.625 55.958 229.994 56.3703C230.846 57.3005 231.332 58.2559 231.453 59.2365C231.519 59.766 231.457 60.2316 231.268 60.6333C231.098 61.0326 230.834 61.4734 230.475 61.9558C230.185 62.35 229.685 62.6507 228.974 62.8581C228.282 63.063 227.584 63.209 226.878 63.2962C226.426 63.352 225.872 63.3806 225.216 63.3821C224.556 63.364 223.914 63.3239 223.289 63.2617C223.377 63.6491 223.522 64.0194 223.725 64.3726C223.928 64.7259 224.15 64.9872 224.39 65.1567C224.828 65.4809 225.259 65.6666 225.683 65.7137C226.126 65.7585 226.682 65.7397 227.348 65.6573C228.054 65.5701 228.697 65.3712 229.276 65.0608C229.744 64.8237 230.135 64.6858 230.449 64.647C230.822 64.601 231.121 64.6835 231.346 64.8946C231.569 65.0861 231.702 65.3584 231.746 65.7114C231.806 66.2017 231.571 66.6389 231.041 67.0229C230.511 67.407 229.884 67.7235 229.158 67.9725C228.449 68.1994 227.869 68.3407 227.418 68.3965C226.496 68.5103 225.583 68.4539 224.679 68.2271C223.775 68.0003 223.001 67.618 222.357 67.0803C221.819 66.5893 221.365 65.9784 220.996 65.2474C220.624 64.4969 220.384 63.6803 220.275 62.7978ZM226.198 58.0341C225.766 58.0874 225.346 58.2289 224.936 58.4587C224.524 58.6689 224.199 58.9381 223.96 59.2662C223.653 59.6824 223.446 60.0167 223.338 60.269C223.247 60.4993 223.206 60.8129 223.215 61.21C223.725 61.3064 224.754 61.2588 226.304 61.0674C227.147 60.9632 227.778 60.7558 228.198 60.4451C228.637 60.132 228.831 59.7695 228.78 59.3577C228.729 58.9458 228.428 58.6047 227.877 58.3343C227.326 58.0639 226.766 57.9638 226.198 58.0341ZM245.856 72.0622C244.777 72.1954 243.969 72.0962 243.43 71.7645C242.913 71.4501 242.627 71.0673 242.571 70.6162C242.486 69.9298 242.768 69.5466 243.415 69.4667C243.611 69.4424 243.873 69.4698 244.201 69.5487C244.532 69.6472 244.835 69.6795 245.109 69.6456C245.541 69.5923 245.859 69.2643 246.063 68.6616C246.267 68.0589 246.428 67.1032 246.545 65.7945C245.85 65.1636 244.967 64.1378 243.895 62.7171C242.843 61.294 241.913 59.8857 241.103 58.4924C240.292 57.0794 239.847 56.0591 239.769 55.4315C239.709 54.9412 239.831 54.5578 240.135 54.2813C240.459 54.0023 240.846 53.835 241.298 53.7792C241.651 53.7356 241.934 53.7703 242.147 53.8834C242.357 53.9768 242.522 54.1854 242.642 54.5091C243.319 56.118 243.999 57.5173 244.684 58.7071C245.388 59.8944 246.253 61.1714 247.278 62.5381C247.517 61.7321 247.797 60.3734 248.118 58.462C248.472 56.3276 248.801 54.8035 249.106 53.8897C249.239 53.5149 249.42 53.2039 249.648 52.9566C249.896 52.707 250.187 52.5616 250.52 52.5204C250.854 52.4792 251.222 52.5631 251.627 52.772C252.048 52.9589 252.279 53.219 252.32 53.5524C252.345 53.7485 252.305 53.9924 252.202 54.2839C251.655 56.1435 251.184 57.8941 250.79 59.5357C250.412 61.1553 250.074 62.9294 249.775 64.858C249.589 65.9362 249.378 66.9678 249.141 67.9528C248.924 68.9353 248.76 69.543 248.65 69.7757C248.325 70.3732 247.94 70.8788 247.493 71.2924C247.049 71.7256 246.503 71.9822 245.856 72.0622ZM266.122 53.8783C266.313 54.1335 266.49 54.5198 266.653 55.0372C266.814 55.535 266.92 55.9898 266.971 56.4017C267.037 56.9312 267.05 57.5268 267.013 58.1886C266.975 58.8503 266.929 59.3637 266.874 59.7289C265.826 62.3672 263.979 63.8499 261.331 64.1769C260.35 64.2981 259.31 64.0981 258.211 63.5769C257.111 63.0556 256.313 62.3976 255.816 61.6028C255.081 60.0012 254.684 58.965 254.626 58.4943C254.529 57.7098 254.593 56.8557 254.817 55.932C255.061 55.0058 255.408 54.1865 255.857 53.4738C256.155 52.9792 256.715 52.5216 257.539 52.1012C258.361 51.6612 259.125 51.3976 259.831 51.3104C261.204 51.1408 262.394 51.2626 263.401 51.6758C264.425 52.067 265.332 52.8012 266.122 53.8783ZM264.148 58.9308C264.221 58.7226 264.189 58.0595 264.051 56.9416C263.981 56.3729 263.804 55.8273 263.52 55.3048C263.256 54.7799 262.904 54.3455 262.463 54.0017C262.419 53.9674 262.304 53.9219 262.118 53.8652C261.929 53.789 261.673 53.731 261.35 53.6913C261.044 53.6296 260.694 53.623 260.302 53.6714C259.204 53.8071 258.454 54.3477 258.053 55.2932C257.652 56.2388 257.521 57.2705 257.659 58.3884C257.681 58.5649 257.785 58.9204 257.97 59.455C258.156 59.9896 258.287 60.3318 258.366 60.4814C258.557 60.7366 258.91 61.0214 259.427 61.3359C259.961 61.6283 260.512 61.7394 261.081 61.6691C261.964 61.5601 262.634 61.2682 263.093 60.7933C263.57 60.2964 263.921 59.6756 264.148 58.9308ZM269.088 53.034C268.931 53.0534 268.787 53.0115 268.655 52.9083C268.52 52.7856 268.442 52.636 268.42 52.4595C268.35 51.8907 268.483 51.4362 268.819 51.096C269.153 50.7362 269.594 50.5224 270.143 50.4545C270.908 50.36 271.591 50.4848 272.191 50.8288C272.808 51.1508 273.163 51.6844 273.255 52.4296C273.279 52.6258 273.332 53.3759 273.413 54.68C273.519 56.1802 273.602 57.1754 273.663 57.6657C273.747 58.3521 273.944 58.8953 274.252 59.2953C274.578 59.6732 275.025 59.8271 275.593 59.7568C276.692 59.6211 277.46 58.909 277.898 57.6203C278.353 56.3097 278.569 54.7499 278.545 52.9409C278.526 52.1468 278.542 51.3085 278.592 50.4262C278.613 49.9458 278.678 49.5893 278.789 49.3566C278.899 49.1239 279.151 48.9833 279.543 48.9349C279.798 48.9034 280.099 48.9259 280.447 49.0024C280.815 49.0764 281.06 49.2054 281.182 49.3895C281.336 49.6691 281.435 49.9854 281.479 50.3384C281.539 50.8287 281.549 51.4746 281.509 52.2761C281.449 53.0799 281.446 53.9464 281.501 54.8754C281.564 55.704 281.798 56.5511 282.204 57.4169C282.609 58.2828 283.104 58.819 283.687 59.0257C284.353 59.262 284.702 59.5076 284.733 59.7626C284.784 60.1744 284.677 60.5162 284.412 60.7879C284.147 61.0596 283.877 61.2124 283.603 61.2463C282.877 61.3359 282.187 61.1523 281.533 60.6955C280.899 60.2362 280.406 59.6301 280.054 58.8771C279.72 59.5556 279.382 60.125 279.041 60.5853C278.717 61.0236 278.277 61.4163 277.723 61.7636C277.166 62.0912 276.456 62.3084 275.593 62.415C274.573 62.541 273.597 62.2932 272.664 61.6718C271.751 61.0479 271.185 59.8534 270.967 58.0883C270.906 57.598 270.852 57.0771 270.804 56.5255C270.775 55.9715 270.746 55.5769 270.717 55.3415C270.689 54.6282 270.638 53.9774 270.566 53.389C270.544 53.2125 270.457 53.0739 270.305 52.9732C270.173 52.8701 270.028 52.8282 269.872 52.8476C269.754 52.8621 269.619 52.8987 269.467 52.9573C269.332 52.9939 269.206 53.0194 269.088 53.034ZM294.351 42.9241C295.061 43.6727 295.474 44.5177 295.59 45.459C295.673 46.1258 295.599 46.7422 295.371 47.3081C295.142 47.8739 294.755 48.529 294.21 49.2734C293.731 49.91 293.395 50.499 293.203 51.0404C293.009 51.5622 292.899 52.0436 292.874 52.4848C292.866 52.9039 292.879 53.5694 292.912 54.4812C292.967 54.9323 292.852 55.2851 292.565 55.5396C292.275 55.7745 291.963 55.9125 291.63 55.9537C290.748 56.0628 290.241 55.5877 290.11 54.5287C290.04 53.9599 290.054 53.2712 290.153 52.4625C290.253 51.6538 290.51 50.7559 290.926 49.7687C291.063 49.4331 291.25 49.0914 291.486 48.7437C291.741 48.3936 291.902 48.1646 291.969 48.0569C292.241 47.6847 292.464 47.3088 292.636 46.9291C292.805 46.5298 292.873 46.1929 292.839 45.9183C292.801 45.6045 292.721 45.3655 292.601 45.2011C292.501 45.0342 292.349 44.8539 292.146 44.6599C291.855 44.3973 291.493 44.2031 291.059 44.0775C290.625 43.9519 290.232 43.9108 289.879 43.9545C289.31 44.0247 288.794 44.198 288.33 44.4743C287.884 44.7286 287.534 45.0406 287.281 45.4103C287.045 45.758 286.948 46.0986 286.989 46.432C287.057 46.9811 287.216 47.3797 287.465 47.6276C287.713 47.8559 287.85 48.0779 287.876 48.2936C287.891 48.4113 287.878 48.5522 287.839 48.7164C287.671 49.2946 287.303 49.6189 286.734 49.6891C286.009 49.7788 285.445 49.5696 285.044 49.0617C284.643 48.5537 284.39 47.8781 284.286 47.0348C284.187 46.2307 284.347 45.4343 284.767 44.6457C285.185 43.8374 285.855 43.1374 286.778 42.5455C287.7 41.9537 288.838 41.5742 290.191 41.407C290.976 41.3101 291.733 41.3958 292.463 41.664C293.191 41.9126 293.82 42.3326 294.351 42.9241ZM291.768 57.0716C292.357 56.9989 292.853 57.1467 293.257 57.5149C293.587 57.7728 293.784 58.1567 293.847 58.6666C293.9 59.098 293.739 59.4863 293.364 59.8314C292.986 60.1568 292.551 60.3498 292.061 60.4104C291.708 60.454 291.353 60.3983 290.995 60.2434C290.547 60.0001 290.277 59.5058 290.185 58.7606C290.136 58.3683 290.27 58.0033 290.587 57.6655C290.923 57.3253 291.317 57.1273 291.768 57.0716Z" fill="white"/>
<defs>
<filter id="filter0_f_55_29" x="376.887" y="280.887" width="213.225" height="45.1454" filterUnits="userSpaceOnUse" color-interpolation-filters="sRGB">
<feFlood flood-opacity="0" result="BackgroundImageFix"/>
<feBlend mode="normal" in="SourceGraphic" in2="BackgroundImageFix" result="shape"/>
<feGaussianBlur stdDeviation="5.55636" result="effect1_foregroundBlur_55_29"/>
</filter>
<filter id="filter1_f_55_29" x="107" y="208" width="189" height="49.0801" filterUnits="userSpaceOnUse" color-interpolation-filters="sRGB">
<feFlood flood-opacity="0" result="BackgroundImageFix"/>
<feBlend mode="normal" in="SourceGraphic" in2="BackgroundImageFix" result="shape"/>
<feGaussianBlur stdDeviation="7.5" result="effect1_foregroundBlur_55_29"/>
</filter>
</defs>
</svg>
